<svg width="22" height="22" viewBox="0 0 22 22" fill="none" xmlns="http://www.w3.org/2000/svg">
<path fill-rule="evenodd" clip-rule="evenodd" d="M11 1.83334C5.83614 1.83334 1.83333 5.61588 1.83333 10.725C1.83333 13.3974 2.92856 15.7067 4.71218 17.3018C4.86191 17.4358 4.95229 17.6235 4.95843 17.8244L5.00836 19.455C5.02431 19.9751 5.56155 20.3136 6.03748 20.1035L7.85694 19.3003C8.01118 19.2323 8.18401 19.2196 8.34653 19.2643C9.18263 19.4942 10.0725 19.6167 11 19.6167C16.1639 19.6167 20.1667 15.8342 20.1667 10.725C20.1667 5.61588 16.1639 1.83334 11 1.83334Z" fill="url(#paint0_radial_17_151)"/>
<path fill-rule="evenodd" clip-rule="evenodd" d="M5.49557 13.3249L8.18829 9.0529C8.61661 8.37328 9.53383 8.20407 10.1765 8.68605L12.3182 10.2923C12.5146 10.4397 12.785 10.4389 12.9807 10.2904L15.8731 8.09526C16.2591 7.80229 16.7631 8.26429 16.5047 8.67428L13.812 12.9464C13.3837 13.6259 12.4664 13.7952 11.8238 13.3132L9.68209 11.7069C9.48561 11.5595 9.21523 11.5603 9.01958 11.7088L6.12716 13.904C5.74111 14.1969 5.23716 13.7349 5.49557 13.3249Z" fill="white"/>
<defs>
<radialGradient id="paint0_radial_17_151" cx="0" cy="0" r="1" gradientUnits="userSpaceOnUse" gradientTransform="translate(5.36203 20.0686) scale(19.976 19.9759)">
<stop stop-color="#0099FF"/>
<stop offset="0.609754" stop-color="#A033FF"/>
<stop offset="0.934823" stop-color="#FF5280"/>
<stop offset="1" stop-color="#FF7061"/>
</radialGradient>
</defs>
</svg>
